# xmcd CD database file
#
# Track frame offsets:
#	150
#	26557
#	55931
#	74045
#	90825
#	102071
#	122581
#	141834
#	158002
#	177752
#	203695
#	221755
#	235230
#	252418
#	267403
#	282410
#	295491
#	309225
#
# Disc length: 4338 seconds
#
# Revision: 0
# Processed by: cddbd v1.5.2PL0 Copyright (c) Steve Scherf et al.
# Submitted via: CDex 1.50
#
DISCID=0910f012
DTITLE=Oscar PETERSON - Plays Basie and Others
DYEAR=2007
DGENRE=Jazz
TTITLE0=One O'Clock Jump
TTITLE1=Easy Does It
TTITLE2=Lester Leaps In
TTITLE3=9.20 Special
TTITLE4=Blue and Sentimental
TTITLE5=Broadway
TTITLE6=Jive at Five
TTITLE7=Blues For Basie
TTITLE8=Topsy
TTITLE9=Jumpin' at the Woodside
TTITLE10=Don't Get Around Much Anymore
TTITLE11=Fascinatin' Rhithm
TTITLE12=Just a Sittin' and a Rockin'
TTITLE13=Easter Parade
TTITLE14=Igot Rhythm
TTITLE15=I've Got My Love To Keep Me Warm
TTITLE16=That Old Black Magic
TTITLE17=Over the rainbow
EXTD=YEAR: 2007
EXTT0=
EXTT1=
EXTT2=
EXTT3=
EXTT4=
EXTT5=
EXTT6=
EXTT7=
EXTT8=
EXTT9=
EXTT10=
EXTT11=
EXTT12=
EXTT13=
EXTT14=
EXTT15=
EXTT16=
EXTT17=
PLAYORDER=
